<svg width="200" height="200" viewBox="0 0 200 200" fill="none" xmlns="http://www.w3.org/2000/svg">
<rect width="200" height="200" rx="100" fill="black"/>
<g filter="url(#filter0_d_3_2)">
<path d="M69.1422 36.75L53 55.203L36.8578 36.75H69.1422Z" stroke="#FFC857" stroke-width="5"/>
<path d="M61.8578 58.25L78 39.797L94.1422 58.25H61.8578Z" stroke="#FFC857" stroke-width="5"/>
<path d="M119.142 36.75L103 55.203L86.8578 36.75H119.142Z" stroke="#FFC857" stroke-width="5"/>
<path d="M111.858 58.25L128 39.797L144.142 58.25H111.858Z" stroke="#FFC857" stroke-width="5"/>
<path d="M89.1422 142.75L73 161.203L56.8578 142.75H89.1422Z" stroke="#FFC857" stroke-width="5"/>
<path d="M81.8578 164.25L98 145.797L114.142 164.25H81.8578Z" stroke="#FFC857" stroke-width="5"/>
<path d="M139.142 142.75L123 161.203L106.858 142.75H139.142Z" stroke="#FFC857" stroke-width="5"/>
<path d="M131.858 164.25L148 145.797L164.142 164.25H131.858Z" stroke="#FFC857" stroke-width="5"/>
<path d="M78.1049 109.341L81.4413 133.63L56.9245 133.706L78.1049 109.341Z" stroke="#FFC857" stroke-width="5"/>
<path d="M89.5522 128.944L86.2157 104.655L110.733 104.578L89.5522 128.944Z" stroke="#FFC857" stroke-width="5"/>
<path d="M110.908 71.6055L114.244 95.8944L89.7274 95.9708L110.908 71.6055Z" stroke="#FFC857" stroke-width="5"/>
<path d="M122.355 91.2083L119.019 66.9194L143.535 66.843L122.355 91.2083Z" stroke="#FFC857" stroke-width="5"/>
</g>
<defs>
<filter id="filter0_d_3_2" x="27.3494" y="34.25" width="146.301" height="140.5" filterUnits="userSpaceOnUse" color-interpolation-filters="sRGB">
<feFlood flood-opacity="0" result="BackgroundImageFix"/>
<feColorMatrix in="SourceAlpha" type="matrix" values="0 0 0 0 0 0 0 0 0 0 0 0 0 0 0 0 0 0 127 0" result="hardAlpha"/>
<feOffset dy="4"/>
<feGaussianBlur stdDeviation="2"/>
<feComposite in2="hardAlpha" operator="out"/>
<feColorMatrix type="matrix" values="0 0 0 0 1 0 0 0 0 1 0 0 0 0 1 0 0 0 0.25 0"/>
<feBlend mode="normal" in2="BackgroundImageFix" result="effect1_dropShadow_3_2"/>
<feBlend mode="normal" in="SourceGraphic" in2="effect1_dropShadow_3_2" result="shape"/>
</filter>
</defs>
</svg>
