<svg width="432" height="172" viewBox="0 0 432 172" fill="none" xmlns="http://www.w3.org/2000/svg">
<g filter="url(#filter0_d_2_217)">
<path d="M42.1422 10.75L26 29.203L9.85785 10.75L42.1422 10.75Z" stroke="#FFC857" stroke-width="5"/>
<path d="M34.8578 32.25L51 13.797L67.1422 32.25H34.8578Z" stroke="#FFC857" stroke-width="5"/>
<path d="M92.1422 10.75L76 29.203L59.8578 10.75L92.1422 10.75Z" stroke="#FFC857" stroke-width="5"/>
<path d="M84.8578 32.25L101 13.797L117.142 32.25H84.8578Z" stroke="#FFC857" stroke-width="5"/>
<path d="M62.1422 116.75L46 135.203L29.8578 116.75H62.1422Z" stroke="#FFC857" stroke-width="5"/>
<path d="M54.8578 138.25L71 119.797L87.1422 138.25H54.8578Z" stroke="#FFC857" stroke-width="5"/>
<path d="M112.142 116.75L96 135.203L79.8578 116.75H112.142Z" stroke="#FFC857" stroke-width="5"/>
<path d="M104.858 138.25L121 119.797L137.142 138.25H104.858Z" stroke="#FFC857" stroke-width="5"/>
<path d="M51.1048 83.341L54.4413 107.63L29.9244 107.706L51.1048 83.341Z" stroke="#FFC857" stroke-width="5"/>
<path d="M62.5521 102.944L59.2157 78.6549L83.7325 78.5785L62.5521 102.944Z" stroke="#FFC857" stroke-width="5"/>
<path d="M83.9078 45.6055L87.2442 69.8944L62.7273 69.9708L83.9078 45.6055Z" stroke="#FFC857" stroke-width="5"/>
<path d="M95.3551 65.2083L92.0187 40.9194L116.535 40.843L95.3551 65.2083Z" stroke="#FFC857" stroke-width="5"/>
<g filter="url(#filter1_d_2_217)">
<path d="M200.79 136.66C198.277 137.353 194.897 138.133 190.65 139C186.403 139.867 181.203 140.3 175.05 140.3C170.023 140.3 165.82 139.563 162.44 138.09C159.06 136.617 156.33 134.537 154.25 131.85C152.17 129.163 150.653 125.913 149.7 122.1C148.833 118.287 148.4 114.083 148.4 109.49V71.79H156.85V106.76C156.85 111.527 157.197 115.557 157.89 118.85C158.583 122.143 159.71 124.83 161.27 126.91C162.83 128.903 164.823 130.377 167.25 131.33C169.763 132.197 172.797 132.63 176.35 132.63C180.337 132.63 183.803 132.413 186.75 131.98C189.697 131.547 191.56 131.157 192.34 130.81V71.79H200.79V136.66ZM246.074 70.49C248.847 70.49 251.447 70.7067 253.874 71.14C256.387 71.5733 258.12 72.0067 259.074 72.44L257.384 79.72C256.69 79.3733 255.26 79.0267 253.094 78.68C251.014 78.2467 248.24 78.03 244.774 78.03C241.134 78.03 238.187 78.29 235.934 78.81C233.767 79.33 232.337 79.7633 231.644 80.11V139H223.194V74.91C225.36 73.9567 228.35 73.0033 232.164 72.05C235.977 71.01 240.614 70.49 246.074 70.49ZM293.007 132.89C296.3 132.89 299.16 132.803 301.587 132.63C304.1 132.37 306.223 132.067 307.957 131.72V108.06C307.003 107.627 305.487 107.193 303.407 106.76C301.327 106.24 298.467 105.98 294.827 105.98C292.747 105.98 290.58 106.153 288.327 106.5C286.073 106.76 283.993 107.41 282.087 108.45C280.18 109.403 278.62 110.747 277.407 112.48C276.193 114.213 275.587 116.51 275.587 119.37C275.587 121.883 275.977 124.007 276.757 125.74C277.623 127.473 278.793 128.86 280.267 129.9C281.827 130.94 283.647 131.72 285.727 132.24C287.893 132.673 290.32 132.89 293.007 132.89ZM292.227 70.23C296.647 70.23 300.373 70.88 303.407 72.18C306.527 73.3933 309.04 75.1267 310.947 77.38C312.853 79.5467 314.24 82.1467 315.107 85.18C315.973 88.2133 316.407 91.5067 316.407 95.06V137.44C315.54 137.7 314.283 138.003 312.637 138.35C310.99 138.61 309.083 138.913 306.917 139.26C304.75 139.607 302.323 139.867 299.637 140.04C297.037 140.3 294.35 140.43 291.577 140.43C288.023 140.43 284.73 140.04 281.697 139.26C278.75 138.48 276.15 137.267 273.897 135.62C271.73 133.887 269.997 131.72 268.697 129.12C267.483 126.433 266.877 123.183 266.877 119.37C266.877 115.73 267.57 112.61 268.957 110.01C270.343 107.41 272.293 105.287 274.807 103.64C277.32 101.907 280.31 100.65 283.777 99.87C287.243 99.09 291.013 98.7 295.087 98.7C296.3 98.7 297.557 98.7867 298.857 98.96C300.243 99.0467 301.543 99.22 302.757 99.48C304.057 99.6533 305.14 99.87 306.007 100.13C306.96 100.303 307.61 100.477 307.957 100.65V96.49C307.957 94.15 307.783 91.8967 307.437 89.73C307.09 87.4767 306.31 85.4833 305.097 83.75C303.97 81.93 302.323 80.5 300.157 79.46C298.077 78.3333 295.303 77.77 291.837 77.77C286.897 77.77 283.213 78.1167 280.787 78.81C278.36 79.5033 276.583 80.0667 275.457 80.5L274.287 73.09C275.76 72.3967 278.013 71.7467 281.047 71.14C284.167 70.5333 287.893 70.23 292.227 70.23ZM381.769 131.2C381.249 131.633 380.469 132.153 379.429 132.76C378.389 133.28 377.089 133.843 375.529 134.45C374.056 135.057 372.323 135.577 370.329 136.01C368.423 136.357 366.256 136.53 363.829 136.53C359.929 136.53 356.159 135.923 352.519 134.71C348.879 133.497 345.673 131.59 342.899 128.99C340.213 126.39 338.046 123.053 336.399 118.98C334.753 114.82 333.929 109.793 333.929 103.9C333.929 99.1333 334.666 94.7133 336.139 90.64C337.613 86.5667 339.693 83.0567 342.379 80.11C345.153 77.0767 348.489 74.7367 352.389 73.09C356.376 71.3567 360.839 70.49 365.779 70.49C372.019 70.49 377.003 70.9233 380.729 71.79C384.543 72.57 387.663 73.35 390.089 74.13V135.49C390.089 145.543 387.489 152.693 382.289 156.94C377.089 161.273 369.246 163.44 358.759 163.44C354.426 163.44 350.483 163.093 346.929 162.4C343.463 161.793 340.473 161.057 337.959 160.19L339.649 152.52C341.729 153.473 344.546 154.297 348.099 154.99C351.739 155.683 355.379 156.03 359.019 156.03C366.993 156.03 372.756 154.47 376.309 151.35C379.949 148.317 381.769 143.073 381.769 135.62V131.2ZM381.639 79.98C380.166 79.5467 378.259 79.1567 375.919 78.81C373.579 78.3767 370.243 78.16 365.909 78.16C362.269 78.16 359.019 78.81 356.159 80.11C353.386 81.3233 351.003 83.1 349.009 85.44C347.016 87.6933 345.499 90.4233 344.459 93.63C343.419 96.75 342.899 100.217 342.899 104.03C342.899 108.45 343.506 112.263 344.719 115.47C345.933 118.59 347.493 121.147 349.399 123.14C351.393 125.133 353.646 126.607 356.159 127.56C358.673 128.427 361.229 128.86 363.829 128.86C367.643 128.86 371.109 128.297 374.229 127.17C377.436 126.043 379.906 124.743 381.639 123.27V79.98Z" fill="white"/>
</g>
</g>
<defs>
<filter id="filter0_d_2_217" x="0.349365" y="8.25" width="393.74" height="163.19" filterUnits="userSpaceOnUse" color-interpolation-filters="sRGB">
<feFlood flood-opacity="0" result="BackgroundImageFix"/>
<feColorMatrix in="SourceAlpha" type="matrix" values="0 0 0 0 0 0 0 0 0 0 0 0 0 0 0 0 0 0 127 0" result="hardAlpha"/>
<feOffset dy="4"/>
<feGaussianBlur stdDeviation="2"/>
<feComposite in2="hardAlpha" operator="out"/>
<feColorMatrix type="matrix" values="0 0 0 0 1 0 0 0 0 1 0 0 0 0 1 0 0 0 0.25 0"/>
<feBlend mode="normal" in2="BackgroundImageFix" result="effect1_dropShadow_2_217"/>
<feBlend mode="normal" in="SourceGraphic" in2="effect1_dropShadow_2_217" result="shape"/>
</filter>
<filter id="filter1_d_2_217" x="144.4" y="70.23" width="249.689" height="101.21" filterUnits="userSpaceOnUse" color-interpolation-filters="sRGB">
<feFlood flood-opacity="0" result="BackgroundImageFix"/>
<feColorMatrix in="SourceAlpha" type="matrix" values="0 0 0 0 0 0 0 0 0 0 0 0 0 0 0 0 0 0 127 0" result="hardAlpha"/>
<feOffset dy="4"/>
<feGaussianBlur stdDeviation="2"/>
<feComposite in2="hardAlpha" operator="out"/>
<feColorMatrix type="matrix" values="0 0 0 0 0 0 0 0 0 0 0 0 0 0 0 0 0 0 0.25 0"/>
<feBlend mode="normal" in2="BackgroundImageFix" result="effect1_dropShadow_2_217"/>
<feBlend mode="normal" in="SourceGraphic" in2="effect1_dropShadow_2_217" result="shape"/>
</filter>
</defs>
</svg>
